<?xml version="1.0" encoding="UTF-8"?><svg id="uuid-6966db6d-f982-425d-a0d2-0ef3392b8f21" xmlns="http://www.w3.org/2000/svg" viewBox="0 0 500 250"><defs><style>.uuid-0bf6e37e-a67a-4262-bcc8-3825c1ae5119{fill:#c80000;}</style></defs><g><path class="uuid-0bf6e37e-a67a-4262-bcc8-3825c1ae5119" d="M223.3,106.4h-35.7c-1,0-1.6-.2-2-.7s-.4-1.1-.1-2.1l12.3-49.9c.2-1,.6-1.7,1.2-2.1,.5-.4,1.3-.7,2.3-.7h35.7c1,0,1.6,.2,2,.7,.3,.4,.4,1.1,.1,2.1l-2.2,9c-.2,1-.6,1.7-1.2,2.1-.5,.4-1.3,.7-2.3,.7h-21.3l-1.5,5.9h15c1,0,1.6,.2,2,.7,.3,.4,.4,1.1,.1,2.1l-2,8.2c-.2,1-.6,1.7-1.2,2.1-.5,.4-1.3,.7-2.3,.7h-15l-1.6,6.6h21.3c1,0,1.6,.2,2,.7,.3,.4,.4,1.1,.1,2.1l-2.2,9c-.2,1-.6,1.7-1.2,2.1-.5,.4-1.3,.7-2.3,.7Z"/><path class="uuid-0bf6e37e-a67a-4262-bcc8-3825c1ae5119" d="M244,106.4h-11.9c-1,0-1.6-.2-2-.7-.3-.4-.4-1.1-.1-2.1l12.3-49.9c.2-1,.6-1.7,1.2-2.1,.5-.4,1.3-.7,2.3-.7h25.6c5.7,0,9.4,1.2,11,3.6s1.9,5.5,1,9.3l-.9,3.5c-.5,2.2-1.3,4-2.3,5.5-1,1.5-2.4,2.6-4.2,3.3,2.7,.3,4.7,1.4,5.9,3.4,1.2,2,1.5,4.5,.7,7.8l-4,16.3c-.2,1-.6,1.7-1.2,2.1s-1.3,.7-2.3,.7h-11.9c-1,0-1.6-.2-2-.7-.3-.4-.4-1.1-.1-2.1l2.9-11.8c.3-1.1,.3-2,0-2.5-.3-.5-1-.8-2.1-.8h-10.8l-3.7,15.1c-.2,1-.6,1.7-1.2,2.1s-1.3,.7-2.3,.7Zm13-41.6l-2.4,9.9h5.8c1.3,0,2.3-.3,3-1,.6-.7,1.1-1.6,1.3-2.6l.6-2.6c.3-1,.2-1.9,0-2.6-.3-.7-1.1-1-2.4-1h-5.8Z"/><path class="uuid-0bf6e37e-a67a-4262-bcc8-3825c1ae5119" d="M295.4,106.4h-11.9c-1,0-1.6-.2-2-.7-.3-.4-.4-1.1-.1-2.1l12.3-49.9c.2-1,.6-1.7,1.2-2.1,.5-.4,1.3-.7,2.3-.7h25.6c5.7,0,9.4,1.2,11,3.6s1.9,5.5,1,9.3l-.9,3.5c-.5,2.2-1.3,4-2.3,5.5-1,1.5-2.4,2.6-4.2,3.3,2.7,.3,4.7,1.4,5.9,3.4,1.2,2,1.5,4.5,.7,7.8l-4,16.3c-.2,1-.6,1.7-1.2,2.1s-1.3,.7-2.3,.7h-11.9c-1,0-1.6-.2-2-.7-.3-.4-.4-1.1-.1-2.1l2.9-11.8c.3-1.1,.3-2,0-2.5-.3-.5-1-.8-2.1-.8h-10.8l-3.7,15.1c-.2,1-.6,1.7-1.2,2.1s-1.3,.7-2.3,.7Zm13-41.6l-2.4,9.9h5.8c1.3,0,2.3-.3,3-1,.6-.7,1.1-1.6,1.3-2.6l.6-2.6c.3-1,.2-1.9,0-2.6-.3-.7-1.1-1-2.4-1h-5.8Z"/><path class="uuid-0bf6e37e-a67a-4262-bcc8-3825c1ae5119" d="M382.4,91.8c-.6,2.4-1.5,4.5-2.6,6.4-1.2,1.9-2.8,3.6-4.9,4.9-2.1,1.4-4.8,2.4-8.1,3.2-3.3,.8-7.3,1.2-12.1,1.2s-8.6-.4-11.6-1.2-5.1-1.8-6.6-3.2c-1.4-1.4-2.3-3-2.5-4.9-.2-1.9,0-4.1,.5-6.4l6.5-26.3c.6-2.4,1.5-4.5,2.6-6.4,1.2-1.9,2.8-3.6,4.9-5,2.1-1.4,4.8-2.5,8.2-3.2,3.3-.8,7.4-1.2,12.1-1.2s8.6,.4,11.5,1.2c2.9,.8,5.1,1.8,6.5,3.2,1.4,1.4,2.3,3,2.5,5,.2,1.9,0,4.1-.5,6.4l-6.5,26.3Zm-29.7-2.8c-.3,1,0,1.9,.5,2.6,.6,.7,2.3,1,5.1,1s4.6-.3,5.6-1c.9-.7,1.5-1.6,1.8-2.6l5.1-20.7c.2-1,0-1.8-.5-2.5-.6-.7-2.3-1-5.1-1s-4.6,.3-5.6,1c-.9,.7-1.5,1.5-1.8,2.5l-5.1,20.7Z"/><path class="uuid-0bf6e37e-a67a-4262-bcc8-3825c1ae5119" d="M397.4,106.4h-11.9c-1,0-1.6-.2-2-.7-.3-.4-.4-1.1-.1-2.1l12.3-49.9c.2-1,.6-1.7,1.2-2.1,.5-.4,1.3-.7,2.3-.7h25.6c5.7,0,9.4,1.2,11,3.6s1.9,5.5,1,9.3l-.9,3.5c-.5,2.2-1.3,4-2.3,5.5-1,1.5-2.4,2.6-4.2,3.3,2.7,.3,4.7,1.4,5.9,3.4,1.2,2,1.5,4.5,.7,7.8l-4,16.3c-.2,1-.6,1.7-1.2,2.1s-1.3,.7-2.3,.7h-11.9c-1,0-1.6-.2-2-.7-.3-.4-.4-1.1-.1-2.1l2.9-11.8c.3-1.1,.3-2,0-2.5-.3-.5-1-.8-2.1-.8h-10.8l-3.7,15.1c-.2,1-.6,1.7-1.2,2.1s-1.3,.7-2.3,.7Zm13-41.6l-2.4,9.9h5.8c1.3,0,2.3-.3,3-1,.6-.7,1.1-1.6,1.3-2.6l.6-2.6c.3-1,.2-1.9,0-2.6-.3-.7-1.1-1-2.4-1h-5.8Z"/><path d="M183.9,169.5h-11.9c-1,0-1.6-.2-2-.7-.3-.4-.4-1.1-.1-2.1l12.3-49.9c.2-1,.6-1.7,1.2-2.1,.5-.4,1.3-.7,2.3-.7h34.3c1,0,1.6,.2,2,.7,.3,.4,.4,1.1,.1,2.1l-2.3,9.2c-.2,1-.6,1.7-1.2,2.1-.5,.4-1.3,.7-2.3,.7h-19.6l-2,8h13.4c1,0,1.6,.2,2,.7,.3,.4,.4,1.1,.1,2.1l-2.3,9.2c-.2,1-.6,1.7-1.2,2.1-.5,.4-1.3,.7-2.3,.7h-13.4l-3.7,15.2c-.2,1-.6,1.7-1.2,2.1-.5,.4-1.3,.7-2.3,.7Z"/><path d="M261.2,154.9c-.6,2.4-1.5,4.5-2.6,6.4-1.2,1.9-2.8,3.6-4.9,4.9-2.1,1.4-4.8,2.4-8.1,3.2-3.3,.8-7.3,1.2-12.1,1.2s-8.6-.4-11.6-1.2c-2.9-.8-5.1-1.8-6.6-3.2-1.4-1.4-2.3-3-2.5-4.9-.2-1.9,0-4.1,.5-6.4l6.5-26.3c.6-2.4,1.5-4.5,2.6-6.4s2.8-3.6,4.9-5c2.1-1.4,4.8-2.5,8.2-3.2,3.3-.8,7.4-1.2,12.1-1.2s8.6,.4,11.5,1.2c2.9,.8,5.1,1.8,6.5,3.2,1.4,1.4,2.3,3,2.5,5,.2,1.9,0,4.1-.5,6.4l-6.5,26.3Zm-29.7-2.8c-.3,1,0,1.9,.5,2.6s2.3,1,5.1,1,4.6-.3,5.6-1,1.5-1.6,1.8-2.6l5.1-20.7c.2-1,0-1.8-.5-2.5-.6-.7-2.3-1-5.1-1s-4.6,.3-5.6,1c-.9,.7-1.5,1.5-1.8,2.5l-5.1,20.7Z"/><path d="M312.4,154.9c-.6,2.4-1.5,4.5-2.6,6.4-1.2,1.9-2.8,3.6-4.9,4.9-2.1,1.4-4.8,2.4-8.1,3.2-3.3,.8-7.3,1.2-12.1,1.2s-8.6-.4-11.5-1.2c-2.9-.8-5.1-1.8-6.5-3.2-1.4-1.4-2.3-3-2.5-4.9-.2-1.9,0-4.1,.5-6.4l9.4-38.1c.2-1,.6-1.7,1.2-2.1,.5-.4,1.3-.7,2.3-.7h12.1c1,0,1.6,.2,2,.7,.3,.4,.4,1.1,.1,2.1l-8.7,35.1c-.3,1,0,1.9,.5,2.6,.6,.7,2.2,1,4.9,1s4.6-.3,5.5-1c.9-.7,1.5-1.6,1.8-2.6l8.7-35.1c.2-1,.6-1.7,1.2-2.1,.5-.4,1.3-.7,2.3-.7h11.7c1,0,1.6,.2,2,.7,.3,.4,.4,1.1,.1,2.1l-9.4,38.1Z"/><path d="M327.6,169.5h-11.5c-1,0-1.6-.2-2-.7-.3-.4-.4-1.1-.1-2.1l12.3-49.9c.2-1,.6-1.7,1.2-2.1,.5-.4,1.3-.7,2.3-.7h8c1,0,1.8,.2,2.4,.5,.6,.3,1.2,.8,1.6,1.6l10.7,17.1,4-16.4c.2-1,.6-1.7,1.2-2.1,.5-.4,1.3-.7,2.3-.7h11.6c1,0,1.6,.2,2,.7,.3,.4,.4,1.1,.1,2.1l-12.3,49.9c-.2,1-.6,1.7-1.2,2.1-.5,.4-1.3,.7-2.3,.7h-11.6c-1,0-1.6-.2-2-.7-.3-.4-.4-1.1-.1-2.1l2.3-9.5-9.2-15.9-6.3,25.4c-.2,1-.6,1.7-1.2,2.1-.5,.4-1.3,.7-2.3,.7Z"/><path d="M394.2,169.5h-26c-1,0-1.6-.2-2-.7-.3-.4-.4-1.1-.1-2.1l12.3-49.9c.2-1,.6-1.7,1.2-2.1,.5-.4,1.3-.7,2.3-.7h26c6.4,0,10.9,1.3,13.3,3.8,2.5,2.6,3.1,6.5,1.7,11.9l-5.9,24c-1.3,5.3-3.8,9.3-7.6,11.9-3.7,2.6-8.8,3.9-15.2,3.9Zm-1.2-40.7l-6.5,26.2h9.2c1.2,0,2.2-.3,3-.9s1.3-1.6,1.6-2.8l4.6-18.7c.3-1.3,.3-2.2-.2-2.8-.4-.6-1.3-.9-2.5-.9h-9.2Z"/></g><g><path class="uuid-0bf6e37e-a67a-4262-bcc8-3825c1ae5119" d="M101.9,101.2c0-.2,.4-1,.5-1.3,.5-2,2.6-6.1,2.6-6.1-10.8,1-13.4,4.1-13.4,4.1,2.9-4,10.5-7.8,10.5-7.8-8,.7-23.8,10.4-23.8,10.4,4.3-5.3,12.7-9.7,12.7-9.7-5.7,.7-14,4.7-14,4.7,0,0,7.1-6.1,15.6-6.7,7.4-.6,13.5-2,15-2.3-1.1-1.5-3.5-5.6-3.3-11.4,.3-9,.9-12.2,2.8-20.4,0,0-.7,6.4,.2,10.7,.9,4.3,1.2,9.8,1.2,9.8,0,0,1.4-.8,1.6-5,.1-2.4,1.1-7.6,1.1-7.6,0,0,.3,5.5,1.2,8.9,.4,1.7,.6,4.4,.5,6.9,.3-.5,.7-1,.9-1.4,2-2.9,6.4-9.1,8.1-11.7,3.5-5,6.9-15.2,7-20.9,0,0,0,0,0,0,0,0,0-.1,0-.2,0,0,0,.1,0,.2-.4,1-1.9,3.8-4.8,5.6-.9,.5-1.9,.9-3,1.2-.7,.1-1.2,.2-1.7,.2,1.1,2,1.3,5.2,1.3,5.2-.2-1.6-2.1-4.2-3.2-5.7-1.6-.9-2.8-2.8-2.7-5.6,0-1.8,.4-3.7,.7-5.5,.2-.8,.3-1.6,.5-2.4,.3-1.3,.4-2.5,.4-3.4-1.3-.4-2.4-.6-4.1-1.3,0,0,0,0,0,0,0,0-.4,7.2-6.1,11.9-4.9,4-12.7,7-18.8,7.3h0c3.8,.3,10.5,.7,15,1.4,0,0-8.2,2.2-15,5.7,0,0,7-.9,11,0,0,0-10,2.4-13.9,8.8l-3.3,10.9s2.3,.6,10.6-1.8c0,0-7.2,7-21.3,12.3h0c-1.1,1.2-3.6,4.1-4.5,10.1-.9,6.1-.2,9.8-.3,10.8,0,0,3.6,5.8,9.6,7.1,0,0-3.6,4.8-8.4,7.2,0,0,5.1-.4,8.4-2.4,0,0-2.1,4.8-10.9,10.6,0,0,5.4-.3,11.4-3.3,0,0-10,9-20.6,12.2l12.2-.4c.9,.1,6.3-.7,6.3-.7,1.4,0,2.6,0,3.3-.1,.4,0,.7,0,.8-.2,.5-.4,.6-1.1,.7-2.3,.3-1.9,.8-5.2,3.4-10.8,1.8-3.1,4.5-6.4,6.9-10.4-3.1-.2-8.5-1.1-13.6-5,0,0,7.8,4.5,14.3,3.8h0c2.5,0,3.6-.3,6.1-.9l6.4-13.3Z"/><path d="M97,114.5c9.7-2.5,23.4-7.7,23.4-7.7,2.4-1.3,9.4-5.5,9.4-5.5,0,0-5.9,5.5-8.9,7.8-1.2,.9-2.4,2.3-3.4,3.6-.3,.9-.5,1.9-.6,2.9-.4,4.5,0,11.6-.3,15.6-.2,4-3.4,9.6-3.4,9.6,0,0-4.7,.8-7.1,2.1-3.2,1.7-3.2,4.3-3.1,5.1,.1,.5,1,1.2,3,4.7,.4,.7,2.4,2.6,2.8,3.3,1.4,2.1,2,5.3,3.5,7.1,4.7,5.5,10.3,10.2,11.8,9.8,.3-.1,1-.8,1.5-1.7-3.2-2.7-7.5-6.4-8.6-8.3-3.2-5-4.6-12.1-4.6-12.1,0,0,4.3,9.8,8.1,13.3,2.2,2.1,4.4,4,5.9,5.2,0,0,0,0,0,0,0-.8-.3-2.4-.8-4.1-.7-1.4-1.3-2.7-1.7-3.1-1-1.1-2.9-1.8-2.9-1.8,.8-.8,1.7-2,1.7-2-1.1-1.2-2.8-1.9-2.8-1.9,1.8-.5,2.7-.1,2.7-.1v-1c-2.5-1.1-5.6-1-5.6-1,1.1-1,2.9-1.5,5.6-1.4,0-1-.1-1.9-.4-2.5l-.8-2s4.2-10.4,6.7-17.3c2.5-6.9,5.6-11.9,6.7-17.8,1.1-5.9,2.6-10.6,3.4-13,.8-2.4,.7-4.3-1.3-6.9,0,0,0,0,0-.1-1.5-1.1-3.2-1.9-4.6-1.4-.8,.2-1.6,.5-2.5,.8,1.6,.4,4.6,1.3,5.5,2.5,1.1,1.6-.2,9.5-1.5,13.7-1.3,4.2-2.5,6.2-4.9,11.8-1.6,3.6-6.9,16.9-6.9,16.9,0,0,2.2-9.9,3.4-17.2,.5-2.8,.2-4.8,.5-6.4,1.2-5.6,4.3-6.6,4.3-6.6-2,4.1-1.3,6-1.3,6,3.4-4.6,4.9-12.2,4.9-12.2,0,0,1.7-5.4-.7-5.8-2.3-.5-11.2,0-11.2,0l4.4-3.5s-.6-1.3-6.1,1-4.9,1.5-4.9,1.5c0,0,0-.4,0-.9,0-1.5,.2-4.3,1.6-4.8,.1,0,.3,0,.5,0,1.1,0,2.8,.2,4.6,.3,1.6,.1,3.2,.2,4.3,.3,.5,0,.8,0,1,0h0c-.3,0-.6,0-1,0-1.6-.8-4.7-1.8-7.4-2.1-1.3-.1-2.6-.1-3.5,.2-.6,.2-1.3,.8-2.1,1.5-1.7,1.6-3.7,4.1-5,5.9,0,.1-.2,.2-.3,.4-.4,.5-.7,1-.9,1.3-.1,.2-.2,.3-.3,.4h0c-2,2.9-9.4,17.7-9.4,17.7Z"/><path d="M55.1,142.1c-1.1,1.5-2.4,1.8-4,3.6-4.6,5.1-7,7.4-10.4,15.8-1.6,3.9-3,7-4.3,9.4h0c-.9,1.9-1.7,3.2-2.4,4.1-1.5,3-2.2,5.4-2.4,7.6,0,0-1.8-3-1.2-7.1-.6,0-1.3,.1-2.1,.4-2.5,.9-5.6,2.1-6.8,3.1-.9,.7,.1,3.1,.9,6.3,.3,1.1,1.4,2.3,1.6,3.4,.3,1.2-.3,3.2,0,4.8,.7,3.9,2.3,7.6,2.8,9.3,.8,2.4,3.4,4.4,6.2,5.7,2.5,1.2,4.2,.7,4.5,.5-3.2-2-8.2-5.4-9.3-8-2.7-6.5-2.5-14.9-2.5-14.9,0,0,2.7,12.1,6.4,17,2.4,3.2,4.8,3.8,6.2,3.8,.1-.7,0-1.6-.2-2.5-.1-.3-.2-.6-.3-.9-.4-.7-.8-1.5-1.1-1.9-.9-1.4-3.1-2.8-3.1-2.8,1.2-.8,2.6-1.9,2.6-1.9-1-1.6-3-2.8-3-2.8,2.3,0,3.3,.5,3.3,.5l.2-1.1c-2.7-1.9-6.5-2.5-6.5-2.5,1.7-.9,4.3-1,8.1,0,.6-1.6,1.1-3.1,1.2-3.9,.2-2.1,2.7-7,4.5-11.1,1.8-4.2,15-19.5,17.7-23.1,2.7-3.7,7.5-6.6,9.9-10.1,.2-.3,.4-.7,.7-1-1.8-.4-5.3,0-5.3,0l-12.2,.4Z"/><path d="M47.4,61.5c1.1,.6,.6,.4,1.8,1.9,1.2,1.5,1.2-.4,2.6,.7,1.4,1.1,1.9,.2,1.9,.2,0,0,.9,1.3,1.7,.8,.8-.5,1.1-1.7,2.3-3.6,1.2-1.9,.6-2.1,0-3.7-.5-1.6-1-3.5-1-3.5,0,0,0-.7,4.5-3.6,4.6-2.9,5.8-4.2,10.4-6.1,4.7-1.9,9-5.3,9-5.3,0,0,6.6,3.9,9.8,5.6,.1,0,.2,.1,.3,.2-1,1.4-2.3,3.6-3.5,6.3,2.4-.3,6.2-1,10.5-3,10.7-5,12.6-13.1,12.9-16.3-.2,0-.3,0-.5-.1-.2,0-.4-.1-.6-.2-.2,0-.3,0-.5-.1,0,0-.2,0-.2,0-1-.2-2.1-.3-3.3-.5-1.7-.2-3.3-.3-4.5-.4-2.4-.1-4.2-.2-4.2-.2,3.9,1.4,6.6,3.8,6.6,3.8-8.2-3.2-18.3-2.2-18.3-2.2,8.9,2.2,13.3,5.6,13.3,5.6-15.8-4.4-26.9-2.6-26.9-2.6,2.8-.2,4.8,2.8,4.8,2.8,0,0-10.1,3.9-14.5,6.6-4.4,2.7-6.4,7.7-6.4,7.7-.4-1-1.6-3.5-2.2-4.8-.1,.2-.3,.3-.4,.5,0,.1-.2,.2-.3,.3-.3,2-.8,5.2-.6,6.6,.5,3.5,2.9,7,2.9,7,0,0-5.6-5.8-6.5-9.1,0,0-.3,3.7,.6,6.5-.3-.2-.5-.4-.8-.6-1-.9-1.8-2.2-2.4-3.5-.8,1.8-.8,2.8-.1,3.8,.8,1.2,.7,1.9,1.8,2.5Z"/><path d="M110.7,32.1h0Z"/><path d="M181,40.6c-.2-1.1-1.7-1.1-1.7-1.1,0,0,0-1.3-.9-1.6-1-.3-1.8,.9-1.8,.9,0,0-.5-1.1-1.4-1.3-.9-.2-1.5,.4-1.5,.4,0,0-.7-1.3-1.6-1.3-.9,0-1.6,.8-1.6,.8,0,0-1.1,0-1.9-.3-.8-.3-1.1,.8-2.2,2.3,.4,2.2,2.9,5.7,2.9,5.7,0,0-3-.5-4.7-2.7,0,.4,0,1.9,.5,2.9,.1,.3,.3,.5,.5,.8h0c.2,.3,.4,.5,.6,.7,.4,.5,1.2,1.1,2.6,2,1.7,1.1,3.4,1.4,3.4,1.4,0,0-2.1,.7-5.5,.2,0,0-.1,1.6,1,2.3,0,0-1.3,.8-4.7-.6-1.8,1.4-5,3.4-7.6,4.6-2,.9-3.5,1.9-4.6,2.7,.9,2.1,.5,3.8,.5,3.8,1,.7,1.4,3.4,1.4,3.4-2.2-1.3-6.2-1.8-6.2-1.8,1.5-1.1,3.4-1.3,3.4-1.3-.9-2.8-3.4-5.2-3.4-5.2-2-1.2-4.6-2.8-6.9-4.2,.4,2.6-.3,4.9-.3,4.9-.8-3.5-2.1-6.2-3.4-8.2-1.1-1.3-2.2-2.7-3.3-3.8-.8-.8-1.5-1.4-2.2-1.9-1.7,7.5-4,13.3-6.1,17.6,3,1.4,6.8,3,9.6,4.3,6,2.8,14,5.1,15.8,5.2,1.7,.1,3.4-.4,5-1.9,1.6-1.6,11-10.1,14.5-14.2,3.5-4.1,6.1-4.5,7.5-7.4,1.4-2.9,2.7-5.5,2.7-5.5,0,0,2-1.7,1.7-2.9Z"/><path d="M117.4,34.2s0,0,0,0c0,0,0,0,0,0Z"/><path d="M128.8,43.1c0,0,0-.1,0-.2,0,0,0,.1,0,.2Z"/><polygon points="128.8 43.1 128.8 43.1 128.8 43.1 128.8 43.1"/><path d="M116,45.2c.2,1.6,.5,2.7,1,3.4,0-.3,0-.6,0-.9,0-.4,.2-1.1,.4-1.9,.4-2,.9-4.5,.9-4.5,.3,1.9,1,6.7,1,6.7,0,0,2.2-3.3,3.9-6h0c1.7-2.8,4.7-4.9,4.7-4.9,0,0-3.7,5.8-2.1,5.2,1.1-.4,2.3-.8,3.9-1.1,.2-.4,.5-.7,.7-1,.7-.7,3.5-.6,4.6-.4,1,.2,3.3,.6,3-.2-.1-.3-.8-1.8-3.3-2.1-.2,0-.6,0-1-.2-2.1-.5-3.4-1.6-3.6-3.2,0-.6-.2-2.6,.9-2.9,1.6-.4,1.8-.5,1.5-2.6-.3-2.1-.9-4.8-.5-5.6,.5-.8,3.1-2,3.5-2.9,.7-1.5-1.1-3.3-2.5-4-1.3-.7,2.6-.8,5.7,0,3.1,.7,6.1,4.6,6.1,4.6,0-.3,.9-.4,1.1-2.1,0-1-.4-1.9-.4-1.9h1.1s-2.8-4.2-7.5-5.9c-3.4-1.2-6.6-1.5-9.1,.3-.6-.2-1.5-.3-2.5-.3-3.1,.2-6.8,2.4-7.8,5.8-1,3.3-.2,6.4,.5,7.4,.4,.5,.8,1.2,1.1,1.7,.1,.4,.2,.8,.4,1.2,.4,1.1,.7,2.7,1,4.1,1.2-2.4-.8-5.2-.6-6.9,.3-2,.9-4.1,.9-4.1,0,0,0,2.5,.2,3.7,.1,.9,1,2.7,1.5,4,.3,1,.4,1.8,.3,2.5,0,.6-.3,1.2-.5,1.6-.2,.4-.8,1-1.5,1.6-.9,.8-3.9,2.4-5.8,2.8-.2,.8-.5,1.7-.7,2.7-.4,1.8-.6,3.8-.3,6.1Zm10.2-25.3c.6-.4,1.6,.9,1.6,.9-.3,0-.8-.2-1.3,0-.4,.1-.8,.6-.9,.9-.4,.7,0,2.9,0,2.9-.4-.7-.6-1.2-.7-2.4,0-1.2,.9-2,1.3-2.3Z"/><path d="M135.8,23.7c-.9,0-1.1,.4-1.1,.4,0,0,.6,.8,1,1.2,.4,.4,1.2,1,1.4,1.1,.8,.5,1.6,.4,2,.2,.3-.2,.8-1,.9-1.1,.1,0,.8-.4,1.2-.5,0,0-.9-1.4-1.4-1.8-.5-.4-3-.7-3.5-.8-.5,0-1.5,.4-1.5,.4,0,0,1.1,.2,1.3,.4,.3,.1,.6,.7,.6,.7,0,0-.4,0-.8,0Z"/><path d="M138.4,30.8c-.4-.1-1.2,0-1,.3,0,.2,.5,.8,1.5,1,.8,.1,2.1-.2,2.3-.3,.3-.2-2.4-.8-2.8-1Z"/><path d="M140.1,33.2c-.3-.5-1.1-.2-1.4-.3-1-.3-1.4-.7-2.5-.8-1,0-1.1,.3-1.3,.4,0,0,.3,.8,1.1,1.5,.9,.8,2.5,1.3,2.5,1.3,0,0,1.9-1.7,1.6-2.1Z"/><path d="M135.6,35.2c-.3,.1,.4,.8,.6,1.2,.3,.4,1,1.5,1.6,1.7,0-.6,.1-1.1,.1-1.3,0-.4,.5-.4,.8-.8,0,0,0,0,0,0-.3-.2-1.5-.4-1.8-.5-.7-.1-1.2-.4-1.4-.2Z"/><path d="M142.5,25.4c-.2,.4-1.5,1.3-.7,2.3,0-.1,0-.2,0-.3,0-.4,.5-.2,.9-.5,.5,.1,.9-.1,.9-.1-.2-.2-.6-.4-.5-.6,.2-.4,.5-.8,.8-1.1-.3-.3-1.2,0-1.3,.3Z"/></g></svg>